#!OML:ASF E:\Steps\Project 1\Capture day 1\Session 2\Subject.ASF
:FULLY-SPECIFIED
:DEGREES
560
root 9.05462 16.3544 2.45707 -150.975 -1.24846 179.41
lowerback -28.3548 -1.47225 -5.77346
upperback -4.63695 -1.35165 -0.311015
thorax 10.5507 -1.34098 2.39406
lowerneck -4.16226 -0.776662 -1.94999
upperneck 11.2478 -1.67366 3.81953
head 4.52894 -0.870593 1.5458
rclavicle -2.73329e-015 -3.1408e-014
rhumerus -26.7649 -4.93593 -89.1648
rradius 35.845
rwrist -2.63927
rhand -6.01885 -59.3622
rfingers 7.12502
rthumb 19.8142 -808.372
lclavicle -2.73329e-015 -3.1408e-014
lhumerus -22.7541 -13.546 91.537
lradius 29.5662
lwrist -0.500389
lhand -23.1641 -11.9017
lfingers 7.12502
lthumb 3.28464 18.0527
rfemur -26.0259 7.93947 16.5354
rtibia 7.17678
rfoot -18.3872 -11.2339
rtoes -25.893
lfemur -26.7529 -6.63712 -18.7621
ltibia 7.92246
lfoot -7.63023 3.3026
ltoes -30.0332
561
root 9.05335 16.3566 2.44372 -151.255 -1.09279 179.475
lowerback -28.159 -1.38797 -5.67143
upperback -4.61525 -1.26985 -0.325815
thorax 10.4684 -1.29202 2.35281
lowerneck -4.08996 -0.768964 -1.95687
upperneck 11.2341 -1.67157 3.86555
head 4.5102 -0.86986 1.56263
rclavicle -1.14301e-015 -1.59028e-015
rhumerus -26.9127 -4.98195 -89.1817
rradius 35.8729
rwrist -2.43079
rhand -6.84462 -59.2734
rfingers 7.12502
rthumb 19.0203 -808.363
lclavicle -1.14301e-015 -1.59028e-015
lhumerus -22.8626 -13.6177 91.5683
lradius 29.4119
lwrist -0.569066
lhand -23.345 -12.0557
lfingers 7.12502
lthumb 3.10995 17.9014
rfemur -25.6247 7.96394 16.6553
rtibia 7.07265
rfoot -18.3875 -11.1164
rtoes -26.5492
lfemur -26.2658 -6.7929 -18.7209
ltibia 7.71564
lfoot -7.64076 3.63284
ltoes -30.0543
562
root 9.05043 16.3633 2.42262 -151.774 -0.775232 179.583
lowerback -27.8355 -1.27266 -5.54177
upperback -4.50375 -1.13757 -0.323595
thorax 10.421 -1.21066 2.335
lowerneck -3.99237 -1.20601 -1.94171
upperneck 11.2509 -1.54239 3.8328
head 4.49446 -0.51055 1.57867
rclavicle -2.33572e-015 -1.90833e-014
rhumerus -26.8632 -4.84564 -89.2014
rradius 35.5602
rwrist -2.30948
rhand -7.54403 -59.0621
rfingers 7.12502
rthumb 18.3475 -808.217
lclavicle -2.33572e-015 -1.90833e-014
lhumerus -22.923 -13.5434 91.5819
lradius 29.257
lwrist -0.53666
lhand -23.3198 -11.9516
lfingers 7.12502
lthumb 3.13422 18.0052
rfemur -24.9508 8.01394 16.8097
rtibia 6.92281
rfoot -18.4078 -10.8001
rtoes -26.8081
lfemur -25.3972 -7.08225 -18.6546
ltibia 7.36462
lfoot -7.72786 4.24215
ltoes -30.1655
563
root 9.05008 16.3656 2.40289 -152.149 -0.464005 179.646
lowerback -27.6768 -1.19193 -5.49268
upperback -4.40418 -1.02723 -0.319947
thorax 10.4457 -1.14849 2.3533
lowerneck -3.86056 -1.17657 -1.9924
upperneck 11.2342 -1.49905 3.8707
head 4.46169 -0.489093 1.60264
rclavicle -1.2424e-015 -8.34896e-015
rhumerus -26.4539 -4.46958 -89.2476
rradius 34.6098
rwrist -2.4417
rhand -7.2636 -58.8131
rfingers 7.12502
rthumb 18.6173 -807.942
lclavicle -1.2424e-015 -8.34896e-015
lhumerus -22.9724 -13.405 91.5677
lradius 29.1335
lwrist -0.53382
lhand -23.1537 -11.5956
lfingers 7.12502
lthumb 3.29466 18.3587
rfemur -24.5311 8.00467 16.9107
rtibia 6.96514
rfoot -18.4798 -10.4293
rtoes -26.5531
lfemur -24.7144 -7.26522 -18.6594
ltibia 7.06244
lfoot -7.81909 4.74428
ltoes -30.5514
564
root 9.05371 16.3635 2.39238 -152.209 -0.29891 179.644
lowerback -27.7774 -1.15676 -5.51651
upperback -4.34492 -0.956783 -0.348673
thorax 10.5591 -1.11715 2.35774
lowerneck -3.78399 -1.15592 -1.98536
upperneck 11.2024 -1.47379 3.90856
head 4.43434 -0.474676 1.61504
rclavicle -1.54058e-015 -2.82274e-014
rhumerus -26.8339 -4.75024 -89.2257
rradius 35.2907
rwrist -2.06408
rhand -6.96813 -58.7198
rfingers 7.12502
rthumb 18.9015 -807.821
lclavicle -1.54058e-015 -2.82274e-014
lhumerus -22.9462 -13.3893 91.5207
lradius 28.8868
lwrist -0.639402
lhand -23.082 -11.5222
lfingers 7.12502
lthumb 3.36387 18.431
rfemur -24.4934 7.98109 16.9396
rtibia 7.09872
rfoot -18.5497 -10.2709
rtoes -26.6748
lfemur -24.509 -7.30541 -18.685
ltibia 6.90488
lfoot -7.82175 4.91473
ltoes -30.4489
565
root 9.05761 16.362 2.38809 -152.17 -0.217464 179.623
lowerback -27.9942 -1.18214 -5.56581
upperback -4.24059 -0.947319 -0.337504
thorax 10.7903 -1.11702 2.398
lowerneck -3.81321 -1.14205 -1.99858
upperneck 11.1655 -1.46106 3.95557
head 4.42733 -0.468082 1.63376
rclavicle 5.2181e-015 2.34566e-014
rhumerus -26.7407 -4.93623 -89.1975
rradius 35.3066
rwrist -1.7069
rhand -6.58243 -58.3405
rfingers 7.12502
rthumb 19.2724 -807.406
lclavicle 5.2181e-015 2.34566e-014
lhumerus -22.6978 -13.3003 91.4666
lradius 28.442
lwrist -0.822092
lhand -23.0153 -11.7405
lfingers 7.12502
lthumb 3.42837 18.2116
rfemur -24.5404 7.95092 16.9391
rtibia 7.14352
rfoot -18.5726 -10.1817
rtoes -26.7786
lfemur -24.5117 -7.2868 -18.71
ltibia 6.88375
lfoot -7.7729 4.94861
ltoes -30.1732
566
root 9.06329 16.3618 2.39228 -152.044 -0.278076 179.632
lowerback -28.1096 -1.24275 -5.58376
upperback -4.23517 -1.02156 -0.292322
thorax 10.8628 -1.15605 2.43039
lowerneck -3.78269 -1.13654 -2.01423
upperneck 11.1349 -1.45736 4.00405
head 4.41102 -0.46526 1.65292
rclavicle 6.75868e-015 -4.77083e-015
rhumerus -26.644 -5.03804 -89.1849
rradius 35.1297
rwrist -1.48677
rhand -6.02654 -58.2918
rfingers 7.12502
rthumb 19.8068 -807.303
lclavicle 6.75868e-015 -4.77083e-015
lhumerus -22.4603 -13.0849 91.3992
lradius 27.9471
lwrist -1.12349
lhand -22.9415 -11.5651
lfingers 7.12502
lthumb 3.49961 18.3859
rfemur -24.678 8.036 16.9305
rtibia 7.10858
rfoot -18.546 -10.2733
rtoes -26.4476
lfemur -24.7708 -7.17273 -18.6753
ltibia 7.06349
lfoot -7.72485 4.84774
ltoes -30.3477
